<svg width="27" height="26" viewBox="0 0 27 26" fill="none" xmlns="http://www.w3.org/2000/svg">
<g id="user-protection-1--shield-secure-security-person">
<path id="Ellipse 442" d="M11.0904 20.9136H1.62793V17.6017C4.52699 15.9872 7.77329 15.0973 11.0904 15.0078" stroke="white" stroke-width="1.5"/>
<path id="Rectangle 38" d="M14.0479 13.8164V21.5046L19.6662 25.0531L25.2845 21.5046V13.8164H14.0479Z" stroke="white" stroke-width="1.5"/>
<path id="Ellipse 350" d="M6.9502 6.42341C6.9502 7.75663 7.47982 9.03525 8.42255 9.97798C9.36528 10.9207 10.6439 11.4503 11.9771 11.4503C13.3103 11.4503 14.589 10.9207 15.5317 9.97798C16.4744 9.03525 17.004 7.75663 17.004 6.42341C17.004 5.09019 16.4744 3.81157 15.5317 2.86884C14.589 1.92611 13.3103 1.39648 11.9771 1.39648C10.6439 1.39648 9.36528 1.92611 8.42255 2.86884C7.47982 3.81157 6.9502 5.09019 6.9502 6.42341Z" stroke="white" stroke-width="1.5"/>
</g>
</svg>
