<svg width="28" height="28" viewBox="0 0 28 28" fill="none" xmlns="http://www.w3.org/2000/svg">
<g id="iris-scan--identification-retina-secure-security-iris-scan-eye-brackets">
<path id="Vector 1145" d="M1.0166 8.54874V0.785156H8.78018" stroke="white" stroke-width="1.5"/>
<path id="Vector 1146" d="M19.1318 0.785156H26.8954V8.54874" stroke="white" stroke-width="1.5"/>
<path id="Vector 1147" d="M26.8954 18.9004V26.664H19.1318" stroke="white" stroke-width="1.5"/>
<path id="Vector 1148" d="M8.78018 26.664H1.0166V18.9004" stroke="white" stroke-width="1.5"/>
<path id="Ellipse 20" d="M11.3682 13.7242C11.3639 15.7163 13.5178 16.9661 15.2452 15.9737C16.0503 15.5111 16.5459 14.6527 16.5439 13.7242C16.5481 11.732 14.3943 10.4824 12.6669 11.4748C11.8618 11.9374 11.3662 12.7957 11.3682 13.7242Z" stroke="white" stroke-width="1.5"/>
<path id="Intersect" d="M13.9559 5.96094C9.3579 5.96094 7.05497 9.84267 3.60449 13.7245C7.05497 17.6064 9.3579 21.4881 13.9559 21.4881C18.554 21.4881 20.8569 17.6064 24.3074 13.7245C20.8569 9.84267 18.554 5.96094 13.9559 5.96094Z" stroke="white" stroke-width="1.5"/>
</g>
</svg>
