<svg width="26" height="26" viewBox="0 0 26 26" fill="none" xmlns="http://www.w3.org/2000/svg">
<g id="transfer-truck-time--truck-shipping-delivery-time-waiting-delay-transfer">
<path id="Vector 2025" d="M7.04237 4.35352V7.31053L4.67676 9.08474" stroke="white" stroke-width="1.5"/>
<path id="Vector 2027" d="M14.1388 14.4074V10.2676H24.7841V22.687H22.4185M14.1388 14.4074V22.687H17.6872M14.1388 14.4074H9.4076L7.04199 17.9558V22.687H9.44309" stroke="white" stroke-width="1.5"/>
<path id="Ellipse 553" d="M17.6875 22.6879C17.6875 23.3153 17.9367 23.917 18.3804 24.3606C18.824 24.8043 19.4257 25.0535 20.0531 25.0535C20.6805 25.0535 21.2822 24.8043 21.7259 24.3606C22.1695 23.917 22.4187 23.3153 22.4187 22.6879C22.4187 22.0605 22.1695 21.4588 21.7259 21.0151C21.2822 20.5715 20.6805 20.3223 20.0531 20.3223C19.4257 20.3223 18.824 20.5715 18.3804 21.0151C17.9367 21.4588 17.6875 22.0605 17.6875 22.6879Z" stroke="white" stroke-width="1.5"/>
<path id="Ellipse 554" d="M9.40723 22.6879C9.40723 23.3153 9.65646 23.917 10.1001 24.3606C10.5437 24.8043 11.1454 25.0535 11.7728 25.0535C12.4002 25.0535 13.0019 24.8043 13.4456 24.3606C13.8892 23.917 14.1384 23.3153 14.1384 22.6879C14.1384 22.0605 13.8892 21.4588 13.4456 21.0151C13.0019 20.5715 12.4002 20.3223 11.7728 20.3223C11.1454 20.3223 10.5437 20.5715 10.1001 21.0151C9.65646 21.4588 9.40723 22.0605 9.40723 22.6879Z" stroke="white" stroke-width="1.5"/>
<path id="Ellipse 549" d="M12.956 7.31126C12.9558 6.19229 12.6381 5.09635 12.0399 4.15071C11.4416 3.20508 10.5874 2.44857 9.57641 1.96903C8.5654 1.4895 7.43909 1.30663 6.3283 1.44166C5.2175 1.57669 4.16781 2.02408 3.30113 2.73186C2.43445 3.43965 1.78636 4.37879 1.43211 5.44021C1.07787 6.50162 1.03202 7.64176 1.29988 8.72819C1.56774 9.81463 2.13833 10.8028 2.94537 11.5779C3.75242 12.353 4.76279 12.8832 5.85915 13.107" stroke="white" stroke-width="1.5"/>
</g>
</svg>
