<svg width="32" height="32" viewBox="0 0 32 32" fill="none" xmlns="http://www.w3.org/2000/svg">
<g id="iris-scan--identification-retina-secure-security-iris-scan-eye-brackets">
<path id="Vector 1145" d="M1.41406 10.1657V1.41406H10.1657" stroke="#FAC917" stroke-width="1.57967"/>
<path id="Vector 1146" d="M21.8345 1.41406H30.5861V10.1657" stroke="#FAC917" stroke-width="1.57967"/>
<path id="Vector 1147" d="M30.5861 21.8345V30.5861H21.8345" stroke="#FAC917" stroke-width="1.57967"/>
<path id="Vector 1148" d="M10.1657 30.5861H1.41406V21.8345" stroke="#FAC917" stroke-width="1.57967"/>
<path id="Ellipse 20" d="M13.0825 16.0001C13.0777 18.2457 15.5057 19.6545 17.4529 18.5358C18.3605 18.0144 18.9192 17.0468 18.9169 16.0001C18.9217 13.7544 16.4937 12.3457 14.5465 13.4644C13.6389 13.9858 13.0803 14.9534 13.0825 16.0001Z" stroke="#FAC917" stroke-width="1.57967"/>
<path id="Intersect" d="M16.0001 7.24829C10.8169 7.24829 8.2209 11.624 4.3313 15.9999C8.2209 20.3758 10.8169 24.7515 16.0001 24.7515C21.1833 24.7515 23.7793 20.3758 27.6689 15.9999C23.7793 11.624 21.1833 7.24829 16.0001 7.24829Z" stroke="#FAC917" stroke-width="1.57967"/>
</g>
</svg>
