<svg width="18" height="10" viewBox="0 0 18 10" fill="none" xmlns="http://www.w3.org/2000/svg">
<g clip-path="url(#clip0_3002_3446)">
<path d="M1.17674 1.03034L1.5303 0.676738C1.53029 0.676743 1.53031 0.676733 1.5303 0.676738C1.62792 0.579126 1.78621 0.579107 1.88385 0.676743L8.64641 7.43934L8.99996 7.7929L9.35352 7.43934L16.1161 0.676744C16.2138 0.579106 16.372 0.579106 16.4696 0.676744L16.8232 1.03034C16.9208 1.12798 16.9208 1.2862 16.8232 1.38384L9.17671 9.03034C9.07907 9.12797 8.92085 9.12797 8.82322 9.03034L1.17674 1.38384C1.07911 1.2862 1.07911 1.12797 1.17674 1.03034Z" fill="#FAC917"/>
<path d="M1.5303 0.676738L1.17674 1.03034C1.07911 1.12797 1.07911 1.2862 1.17674 1.38384L8.82322 9.03034C8.92085 9.12797 9.07907 9.12797 9.17671 9.03034L16.8232 1.38384C16.9208 1.2862 16.9208 1.12798 16.8232 1.03034L16.4696 0.676744C16.372 0.579106 16.2138 0.579106 16.1161 0.676744L9.35352 7.43934L8.99996 7.7929L8.64641 7.43934L1.88385 0.676743C1.78621 0.579107 1.62792 0.579126 1.5303 0.676738ZM1.5303 0.676738C1.53031 0.676733 1.53029 0.676743 1.5303 0.676738Z" stroke="#FAC917"/>
</g>
<defs>
<clipPath id="clip0_3002_3446">
<rect width="18" height="10" fill="white"/>
</clipPath>
</defs>
</svg>
