<svg width="18" height="10" viewBox="0 0 18 10" fill="none" xmlns="http://www.w3.org/2000/svg">
<path d="M1.17674 1.03034L1.17676 1.03032L1.5303 0.676738C1.53031 0.676733 1.53031 0.676729 1.53032 0.676724C1.62794 0.579112 1.78621 0.579107 1.88385 0.676743C1.88385 0.676743 1.88385 0.676744 1.88385 0.676744L8.64641 7.43934L8.99996 7.7929L9.35352 7.43934L16.1161 0.676744C16.2138 0.579106 16.372 0.579106 16.4696 0.676744L16.8232 1.03034C16.9208 1.12798 16.9208 1.2862 16.8232 1.38384L9.17671 9.03034C9.07907 9.12797 8.92085 9.12797 8.82322 9.03034L1.17674 1.38384C1.17674 1.38384 1.17674 1.38384 1.17674 1.38384C1.07911 1.2862 1.07911 1.12797 1.17674 1.03034Z" fill="#AAAAAA" stroke="#AAAAAA"/>
</svg>
