<svg width="127" height="48" viewBox="0 0 127 48" fill="none" xmlns="http://www.w3.org/2000/svg">
<g id="sappo logo (new) 2" clip-path="url(#clip0_748_1994)">
<g id="Layer_x0020_1">
<path id="Vector" d="M0.467713 31.6984L1.65789 27.9799C3.82896 28.6616 5.5413 28.9417 8.15948 28.7652C11.136 28.5644 13.1887 27.4883 13.0386 25.2655C12.7035 20.3166 0.59561 22.3957 0.0216605 13.8964C-0.289097 9.30589 3.7666 6.94245 8.07069 6.65177C11.656 6.40972 13.5724 7.03652 15.4179 7.70454L14.2552 11.2772C12.4974 10.8554 10.9573 10.4559 8.48186 10.6229C5.86474 10.7994 4.67773 11.8881 4.7866 13.5022C5.07411 17.7693 17.3913 16.6499 17.9367 24.718C18.295 30.0251 13.6347 32.5017 8.50723 32.8484C4.52658 33.1179 2.25192 32.5144 0.467713 31.6984ZM124.886 47.7573H119.587V39.8383H124.886V41.317H121.163V43.022H124.611V44.4997H121.163V46.2786H124.886V47.7573ZM113.472 47.8746C112.33 47.8746 111.374 47.4994 110.606 46.75C109.836 45.9932 109.454 45.0176 109.454 43.8253C109.454 42.6245 109.845 41.6384 110.627 40.8678C111.416 40.0888 112.372 39.6998 113.492 39.6998C114.191 39.6998 114.84 39.8478 115.439 40.1438C116.039 40.4408 116.511 40.8382 116.857 41.3392L115.809 42.3783C115.196 41.6141 114.452 41.2314 113.577 41.2314C112.872 41.2314 112.28 41.4788 111.801 41.9703C111.321 42.4575 111.082 43.0738 111.082 43.8253C111.082 44.5536 111.318 45.1571 111.791 45.6359C112.262 46.1147 112.855 46.3536 113.567 46.3536C114.478 46.3536 115.235 45.9678 115.841 45.1962L116.92 46.1919C116.553 46.7003 116.065 47.1073 115.455 47.4138C114.845 47.7214 114.184 47.8746 113.472 47.8746ZM104.99 39.8383H106.566V47.7573H104.99V39.8383ZM98.6342 45.3146L100.686 39.8383H102.463L99.2578 47.7573H98.0095L94.7624 39.8383H96.5709L98.6342 45.3146ZM90.1401 41.3065H88.7217V43.4501H90.0017C90.397 43.4501 90.6993 43.3496 90.9065 43.1499C91.1147 42.949 91.2183 42.689 91.2183 42.3677C91.2183 42.0601 91.121 41.8075 90.9276 41.6067C90.7331 41.4069 90.471 41.3065 90.1401 41.3065ZM93.1336 47.7573H91.3028L89.6529 44.8749H88.7217V47.7573H87.1573V39.8383H90.1507C91.0174 39.8383 91.6802 40.0825 92.1389 40.5676C92.5966 41.0528 92.827 41.6458 92.827 42.3466C92.827 42.875 92.6907 43.3475 92.419 43.7661C92.1484 44.1836 91.7542 44.4859 91.2405 44.6709L93.1336 47.7573ZM84.1216 47.7573H78.8229V39.8383H84.1216V41.317H80.3989V43.022H83.8468V44.4997H80.3989V46.2786H84.1216V47.7573ZM73.1109 47.8852C72.4978 47.8852 71.9302 47.7573 71.4081 47.4994C70.8859 47.2436 70.4673 46.8779 70.1502 46.4075L71.0487 45.303C71.5708 46.0386 72.261 46.4075 73.1214 46.4075C73.4449 46.4075 73.7144 46.3283 73.9248 46.1718C74.1372 46.0133 74.2429 45.8114 74.2429 45.5609C74.2429 45.2322 74.0061 44.9573 73.5347 44.7354C73.4777 44.7068 73.2197 44.6032 72.7621 44.4246C72.4027 44.2819 72.0962 44.1392 71.8414 43.9955C71.0159 43.5177 70.6047 42.8603 70.6047 42.0242C70.6047 41.3604 70.85 40.8097 71.3446 40.3742C71.8456 39.9324 72.4872 39.7104 73.2705 39.7104C74.2852 39.7104 75.1414 40.0677 75.84 40.7811L75.004 41.9385C74.7925 41.7102 74.5304 41.5305 74.2165 41.3974C73.9026 41.2652 73.5939 41.1997 73.2906 41.1997C72.9809 41.1997 72.7356 41.2695 72.5559 41.409C72.3763 41.5475 72.2854 41.7314 72.2854 41.9607C72.2854 42.2673 72.4978 42.5284 72.9217 42.7419L73.6922 43.0854C74.1298 43.2714 74.4469 43.4109 74.6446 43.504C75.5335 43.9394 75.9774 44.5969 75.9774 45.4742C75.9774 46.1824 75.7132 46.7606 75.1847 47.2108C74.6551 47.6611 73.9639 47.8852 73.1109 47.8852ZM62.4923 39.8383H64.3008L61.5928 45.0144V47.7573H60.0274V45.0144L57.351 39.8383H59.1596L60.8106 43.3105L62.4923 39.8383ZM51.6612 47.7573V41.3709H49.4289V39.8383H55.4802V41.3709H53.2478V47.7573H51.6612ZM45.2421 39.8383H46.8181V47.7573H45.2421V39.8383ZM39.4878 41.3065H38.0693V43.4501H39.3493C39.7447 43.4501 40.0459 43.3496 40.2531 43.1499C40.4624 42.949 40.5659 42.689 40.5659 42.3677C40.5659 42.0601 40.4687 41.8075 40.2753 41.6067C40.0808 41.4069 39.8186 41.3065 39.4878 41.3065ZM42.4812 47.7573H40.6505L39.0005 44.8749H38.0693V47.7573H36.505V39.8383H39.4984C40.3641 39.8383 41.0278 40.0825 41.4866 40.5676C41.9443 41.0528 42.1747 41.6458 42.1747 42.3466C42.1747 42.875 42.0383 43.3475 41.7667 43.7661C41.495 44.1836 41.1018 44.4859 40.5881 44.6709L42.4812 47.7573ZM27.1548 44.8643V39.8383H28.7318V44.7565C28.7318 45.2787 28.8618 45.675 29.1229 45.9467C29.3829 46.2173 29.7465 46.3536 30.2116 46.3536C30.6619 46.3536 31.0191 46.2141 31.2802 45.9361C31.5402 45.6571 31.6713 45.2639 31.6713 44.7565V39.8383H33.2589V44.8643C33.2589 45.8568 32.9693 46.6105 32.3911 47.1252C31.8193 47.6389 31.0931 47.8968 30.2116 47.8968C29.3301 47.8968 28.6007 47.6389 28.0226 47.1252C27.4433 46.6105 27.1548 45.8568 27.1548 44.8643ZM21.1257 47.8746C19.9841 47.8746 19.0286 47.4994 18.2601 46.75C17.4906 45.9932 17.107 45.0176 17.107 43.8253C17.107 42.6245 17.4991 41.6384 18.2802 40.8678C19.0698 40.0888 20.0264 39.6998 21.1468 39.6998C21.8455 39.6998 22.4945 39.8478 23.0938 40.1438C23.692 40.4408 24.1656 40.8382 24.5112 41.3392L23.4637 42.3783C22.8496 41.6141 22.1066 41.2314 21.2314 41.2314C20.5263 41.2314 19.9344 41.4788 19.4545 41.9703C18.9757 42.4575 18.7358 43.0738 18.7358 43.8253C18.7358 44.5536 18.9715 45.1571 19.445 45.6359C19.9165 46.1147 20.5094 46.3536 21.2208 46.3536C22.1309 46.3536 22.8887 45.9678 23.4954 45.1962L24.5736 46.1919C24.2079 46.7003 23.7185 47.1073 23.1096 47.4138C22.4998 47.7214 21.8381 47.8746 21.1257 47.8746ZM14.642 47.7573H9.34331V39.8383H14.642V41.317H10.9193V43.022H14.3672V44.4997H10.9193V46.2786H14.642V47.7573ZM3.6313 47.8852C3.01719 47.8852 2.44958 47.7573 1.92743 47.4994C1.40633 47.2436 0.986698 46.8779 0.669599 46.4075L1.56805 45.303C2.0902 46.0386 2.78042 46.4075 3.64187 46.4075C3.96532 46.4075 4.23485 46.3283 4.44519 46.1718C4.65659 46.0133 4.76335 45.8114 4.76335 45.5609C4.76335 45.2322 4.52658 44.9573 4.0541 44.7354C3.99703 44.7068 3.74018 44.6032 3.28144 44.4246C2.92206 44.2819 2.61553 44.1392 2.36185 43.9955C1.53634 43.5177 1.12411 42.8603 1.12411 42.0242C1.12411 41.3604 1.37039 40.8097 1.86506 40.3742C2.36502 39.9324 3.00768 39.7104 3.78985 39.7104C4.80563 39.7104 5.6618 40.0677 6.36047 40.7811L5.52439 41.9385C5.31299 41.7102 5.05085 41.5305 4.73692 41.3974C4.42194 41.2652 4.11435 41.1997 3.81099 41.1997C3.50024 41.1997 3.25607 41.2695 3.07638 41.409C2.89669 41.5475 2.80579 41.7314 2.80579 41.9607C2.80579 42.2673 3.01719 42.5284 3.44104 42.7419L4.21265 43.0854C4.65025 43.2714 4.96735 43.4109 5.16501 43.504C6.05288 43.9394 6.49682 44.5969 6.49682 45.4742C6.49682 46.1824 6.23257 46.7606 5.70407 47.2108C5.17558 47.6611 4.4843 47.8852 3.6313 47.8852ZM76.2396 6.86317L85.723 6.84309C91.3113 6.83146 95.1408 10.0215 95.1524 15.6458C95.163 20.5714 91.3483 24.6968 83.85 24.7127L82.0848 24.7169L82.0774 20.7828L84.0624 20.7785C88.0325 20.7701 89.9763 18.8548 89.97 15.8032C89.9636 12.6788 88.562 10.8079 84.9228 10.8153L81.2836 10.8227L81.3301 32.842L76.2945 32.8526L76.2396 6.86317ZM121.898 19.748C121.919 14.3943 119.221 10.3861 113.537 10.3639C107.596 10.3396 104.976 14.3277 104.955 19.6084C104.935 24.7793 107.448 29.1161 113.206 29.1394C119.367 29.1637 121.876 25.0657 121.898 19.748ZM99.8941 19.6243C99.9258 11.4833 105.375 6.33362 113.882 6.36744C122.904 6.40338 127.025 12.1408 126.994 19.805C126.963 27.946 121.955 33.1708 113.08 33.1359C104.388 33.1021 99.8613 27.8023 99.8941 19.6243ZM52.5851 6.86317L62.0684 6.84309C67.6568 6.83146 71.4863 10.0215 71.4979 15.6458C71.5085 20.5714 67.6938 24.6968 60.1954 24.7127L58.4302 24.7169L58.4228 20.7828L60.4079 20.7785C64.3769 20.7701 66.3218 18.8548 66.3154 15.8032C66.3091 12.6788 64.9075 10.8079 61.2683 10.8153L57.629 10.8227L57.6755 32.842L52.64 32.8526L52.5851 6.86317ZM36.8284 3.12986L39.8556 0.104733L42.8448 3.13092L39.8535 6.15604L36.8284 3.12986ZM38.7321 20.9614L35.6382 10.514L32.1406 20.9593L38.7321 20.9614ZM28.5077 3.12669L31.499 0.101562L34.5231 3.1288L31.4958 6.15393L28.5077 3.12669ZM32.649 7.37898L39.0248 7.3811L47.8434 32.8526L42.7275 32.8515L39.9201 24.6006L30.7708 24.5975L27.6336 32.8463L22.6985 32.8452L32.649 7.37898Z" fill="white"/>
</g>
</g>
<defs>
<clipPath id="clip0_748_1994">
<rect width="127" height="47.7953" fill="white" transform="translate(0 0.101562)"/>
</clipPath>
</defs>
</svg>
